<svg width="50" height="50" viewBox="0 0 50 50" fill="none" xmlns="http://www.w3.org/2000/svg">
<path d="M2.08334 8.33331V20.8333H14.5833" stroke="white" stroke-width="2" stroke-linecap="round" stroke-linejoin="round"/>
<path d="M47.9167 41.6667V29.1667H35.4167" stroke="white" stroke-width="2" stroke-linecap="round" stroke-linejoin="round"/>
<path d="M42.6875 18.75C41.6309 15.7642 39.8351 13.0946 37.4678 10.9905C35.1004 8.88634 32.2386 7.41619 29.1494 6.71722C26.0602 6.01825 22.8443 6.11323 19.8017 6.99329C16.7591 7.87336 13.9891 9.50984 11.75 11.75L2.08334 20.8333M47.9167 29.1667L38.25 38.25C36.0109 40.4902 33.2409 42.1267 30.1983 43.0067C27.1557 43.8868 23.9398 43.9818 20.8506 43.2828C17.7614 42.5838 14.8996 41.1137 12.5322 39.0096C10.1649 36.9054 8.3691 34.2359 7.3125 31.25" stroke="white" stroke-width="3" stroke-linecap="round" stroke-linejoin="round"/>
</svg>
