<svg width="50" height="32" viewBox="0 0 50 32" fill="none" xmlns="http://www.w3.org/2000/svg">
<path d="M27.2107 31.75C10.2984 31.75 0.651936 19.9257 0.25 0.25H8.72158C8.99984 14.6914 15.2453 20.8086 20.1922 22.0698V0.25H28.1691V12.705C33.0542 12.1689 38.1866 6.49324 39.918 0.25H47.8949C47.2425 3.48792 45.9419 6.55372 44.0746 9.25563C42.2073 11.9575 39.8134 14.2374 37.0426 15.9527C40.1355 17.52 42.8672 19.7384 45.0576 22.4614C47.2481 25.1845 48.8474 28.3503 49.75 31.75H40.9692C40.159 28.7971 38.5121 26.1538 36.2351 24.1514C33.9581 22.1489 31.1522 20.8764 28.1691 20.4932V31.75H27.2107Z" fill="white"/>
</svg>
